<svg version="1.0" xmlns="http://www.w3.org/2000/svg" width="400.000000pt" height="400.000000pt"
    viewBox="0 0 400.000000 400.000000" preserveAspectRatio="xMidYMid meet">

    <g transform="translate(0.000000,400.000000) scale(0.100000,-0.100000)" fill="#fff" stroke="none">
        <path d="M2333 3816 c-23 -7 -56 -23 -75 -34 -18 -12 -389 -378 -825 -814
-874 -875 -843 -839 -843 -964 0 -96 23 -147 106 -234 122 -127 220 -163 350
-125 l59 16 813 812 c901 900 867 861 866 988 -1 52 -7 80 -27 122 -33 67
-158 190 -222 218 -60 27 -147 33 -202 15z" />
        <path d="M2310 2371 c-72 -22 -130 -75 -537 -483 -480 -481 -475 -474 -475
-600 0 -94 30 -153 124 -245 102 -98 142 -118 243 -118 64 0 89 5 125 24 30
15 190 167 478 455 483 482 486 485 486 605 -1 100 -29 153 -133 254 -64 62
-100 88 -136 100 -50 18 -131 21 -175 8z" />
        <path d="M2277 934 c-36 -11 -70 -35 -133 -96 -106 -102 -138 -162 -138 -258
1 -91 28 -146 116 -236 94 -97 157 -129 253 -129 93 1 148 26 236 111 120 117
156 231 112 359 -21 62 -146 196 -218 232 -63 32 -159 40 -228 17z" />
    </g>
</svg>